<?xml version="1.0" encoding="UTF-8"?>
<svg id="Layer_2" xmlns="http://www.w3.org/2000/svg" viewBox="0 0 1826.6 1897.39"><defs><style>.cls-1{fill:#0e2647;}.cls-2{fill:#960033;}</style></defs><g id="Layer_1-2"><g><g><path class="cls-1" d="M1693.95,1613.54c-34.75-29.33-55.93-71.87-55.93-113.29-239.24-47.25-481.98-70.89-724.72-70.89s-485.47,23.64-724.72,70.89c0,20.7-5.3,41.71-14.94,61.17-9.64,19.48-23.62,37.47-41,52.12-11.75,9.92-23.5,19.89-35.23,29.94,11.73,4.79,23.48,9.64,35.23,14.53,34.75,14.53,55.93,48.93,55.93,90.3,239.24-47.25,481.98-70.87,724.72-70.87s485.47,23.62,724.72,70.87c0-20.68,5.3-39.62,14.94-55.2,9.64-15.59,23.62-27.83,41-35.09,11.75-4.89,23.5-9.74,35.23-14.53-11.73-10.05-23.48-20.01-35.23-29.94Zm-1500.19,25.49c.26,3.19,.67,6.54,1.2,10.03,1.36,8.22,3.53,14.39,6.54,18.55-9.52-1.71-16.68-4.69-21.45-8.89-4.75-4.12-8.5-7.65-11.22-10.47-4.65-5.32-11.89-9.66-21.68-13.05,7.06-5.17,13.76-11.79,20.03-19.85,11.2-14.53,22.75-24.13,34.77-28.74-5.72,11.77-8.63,22.67-8.63,32.64s.14,16.5,.45,19.79Zm213.08,19.44c-46.44,5.76-92.77,12.3-139.05,19.63v-145.11c43.37-6.88,86.82-13.05,130.34-18.53,36.63-4.63,63.2,4.71,63.2,30.46,0,18.06-12.99,32.09-25.73,35.42v.41c16.6,.49,31.8,9.19,31.8,30.91,0,27.01-24.13,42.32-60.56,46.82Zm223.94-21.62c-4.4-8.08-8.79-16.16-13.19-24.23-28.8,2.09-57.56,4.49-86.32,7.16-4.47,8.81-8.93,17.62-13.4,26.45-16.36,1.58-32.72,3.27-49.07,5.03,27.58-51.37,55.16-102.47,82.77-153.27,18.41-1.64,36.82-3.15,55.24-4.53,26.95,46.36,53.93,92.95,80.9,139.84-18.98,1.06-37.95,2.23-56.93,3.55Zm280.38-9.94c-11.61,2.46-25.45,4.57-38.48,4.71-71.05,1.14-52.93-60.64-107.89-58.92-3.25,.12-6.51,.24-9.76,.39v57.03c-16.95,.67-33.91,1.42-50.86,2.31v-145.13c43.86-2.25,87.76-3.84,131.66-4.69,29.12-.61,59.85,12.62,59.85,42.46,0,27.42-26.06,41.1-58.03,44.57v.61c13.23,8.89,18.94,27.03,42.97,26.79,7.94-.08,20.97-1.56,30.54-2.8v32.68Zm167.5,3.08c-46.66-1.81-93.34-2.82-140.04-3.04v-145.11c43.78,.2,87.56,1.12,131.29,2.72,36.84,1.34,63.48,14.98,63.48,40.75,0,18.06-13.03,29.96-25.84,31.21v.41c16.68,3.19,31.92,14.37,31.92,36.09,0,27.01-24.19,38.4-60.83,36.98Zm259.07,18.12c-56.58-5.74-113.27-10.31-170-13.72v-145.13c53.82,3.25,107.59,7.53,161.27,12.85v30.44c-36.78-3.65-73.59-6.8-110.45-9.48v27.6c23.1,1.68,46.19,3.55,69.27,5.6v27.2c-23.08-2.05-46.17-3.92-69.27-5.58v29.43c39.76,2.86,79.5,6.33,119.18,10.35v30.44Zm231.02,29.98c-11.51,.61-25.23,.53-38.16-1.4-70.51-10.13-52.52-69.03-107.16-76.03-3.25-.39-6.47-.79-9.72-1.18v57.03c-16.89-2.01-33.77-3.94-50.66-5.76v-145.11c43.72,4.71,87.39,10.11,130.97,16.2,28.92,4.02,59.38,22.12,59.38,51.98,0,27.4-25.84,36.96-57.56,35.35v.61c13.13,10.98,18.79,30.04,42.62,33.59,7.87,1.2,20.78,1.77,30.28,2.05v32.68Zm89.02-29.85c-2.72,2.82-6.47,6.35-11.22,10.47-4.77,4.2-11.93,7.18-21.45,8.89,3-4.16,5.18-10.33,6.54-18.55,.53-3.49,.93-6.84,1.2-10.03,.3-3.29,.45-9.82,.45-19.79s-2.9-20.86-8.63-32.64c12.01,4.61,23.56,14.21,34.77,28.74,6.27,8.06,12.97,14.67,20.03,19.85-9.78,3.39-17.03,7.73-21.68,13.05Z"/><path class="cls-1" d="M409.48,1556.87c-.02-8.93-6.7-12.99-17.82-11.57-24.5,3.13-48.95,6.47-73.39,10.05v27.2c24.84-3.63,49.7-7.02,74.61-10.19,10.11-1.3,16.6-6.76,16.6-15.49Z"/><path class="cls-1" d="M547.11,1588.49c18.35-1.64,36.69-3.15,55.04-4.55-9.07-16.7-18.14-33.37-27.22-50.01-9.28,18.16-18.55,36.35-27.83,54.55Z"/><path class="cls-1" d="M394.1,1600.61c-25.31,3.21-50.58,6.66-75.82,10.35v29.43c25.19-3.67,50.39-7.12,75.62-10.33,11.73-1.48,19.02-7.02,19.02-17.39s-6.88-13.56-18.81-12.06Z"/><path class="cls-1" d="M1081.33,1528.82c0-8.93-6.72-14.06-17.92-14.47-24.62-.85-49.24-1.5-73.88-1.93v27.22c25.04,.43,50.07,1.08,75.11,1.95,10.17,.37,16.68-4.04,16.68-12.77Z"/><path class="cls-1" d="M845.01,1526.27c0-11.37-9.17-14.86-18.73-14.63-23.75,.51-47.49,1.24-71.24,2.17v30.44c23.75-.93,47.49-1.64,71.24-2.17,9.36-.22,18.73-4.24,18.73-15.81Z"/><path class="cls-1" d="M1065.86,1570.07c-25.45-.91-50.88-1.58-76.33-2.01v29.43c25.37,.43,50.76,1.1,76.13,1.99,11.79,.43,19.12-3.94,19.12-14.29s-6.92-14.69-18.92-15.12Z"/><path class="cls-1" d="M1503.13,1566.96c.02-11.37-9.09-16.32-18.59-17.62-23.58-3.25-47.19-6.27-70.81-9.11v30.44c23.62,2.84,47.23,5.87,70.81,9.11,9.3,1.28,18.61-1.26,18.59-12.83Z"/></g><g><path class="cls-2" d="M371.43,1006.31c-29.33,4.65-58.61,9.68-87.84,15.09-8.88,1.65-15.73,5.13-20.53,10.42-4.8,5.29-7.19,10.79-7.19,16.51,0,5.7,.9,9.71,2.67,12.06,5.14-4.03,12.47-6.95,21.98-8.72,9.51-1.77,17.91-1.04,25.19,2.11-25.25,55.79-50.47,111.86-75.64,168.21-26.51-45.85-52.97-91.39-79.38-136.62,6.35-5.19,14.66-8.92,24.93-11.16,4.78-1.04,9.56-.57,14.34,1.44,1.93-1.64,2.92-4.98,2.92-9.98-.37-8.12-4.53-13.66-12.48-16.59-3.72-1.51-8.06-2.3-13-2.37-4.96-.06-11.5,.81-19.62,2.65-38.68,8.77-77.25,18.22-115.69,28.34-10.69,2.81-18.84,7.68-24.46,14.57-2.62,3.19-4.55,6.63-5.78,10.26C.61,1106.18,0,1109.93,0,1113.87c0,3.91,.98,6.34,2.89,7.23,4.57-4.28,10.78-7.47,18.67-9.57,7.9-2.11,16.93,.15,27.12,6.81,35.31,52.96,70.73,106.49,106.25,160.58v9.64c0,8.76-3.01,17.26-9.01,25.59-3.71,4.94-11.49,11.53-23.29,19.83,12.69,3.26,21.86,7.77,27.53,13.44,3.19,3.21,4.77,8.93,4.77,17.13v52.72c-3.37,7.89-8.35,14.27-14.98,19.17-6.63,4.9-13.16,8.13-19.59,9.65-6.43,1.52-11.58,1.22-15.45-.89-1.94,3.15-2.91,6.49-2.91,10.06,0,6.97,4.21,11.74,12.68,14.36,4.05,1.36,8.68,2.1,13.88,2.23,5.22,.13,11.66-.69,19.35-2.43l116.09-24.24c10.56-2.02,20.27-6.33,29.19-12.95,3.9-2.84,7.02-6,9.33-9.45,2.31-3.45,3.46-6.9,3.46-10.37,0-3.5-.97-6.38-2.93-8.72-3.93,3.74-9.17,6.21-15.75,7.42-6.58,1.21-13.18,.73-19.84-1.39-6.66-2.11-11.6-6.42-14.78-12.93v-52.72c0-8.2,2.65-16.13,7.98-23.76,3.55-4.97,11.74-11.79,24.52-20.39-11.91-3.34-20.88-7.79-26.92-13.38-3.71-3.57-5.58-9.72-5.58-18.47v-14.71c31.06-67.85,62.18-135.26,93.36-202.25,9.09-7.92,19.51-12.84,31.27-14.68,6.79-1.06,12.48-.43,17.14,1.9,1.95-1.71,2.94-4.64,2.94-8.74,0-8.01-2.39-14.21-7.11-18.59-4.73-4.35-11-5.93-18.85-4.69Zm-175.39,311.27c0,7.85-.09,15.53-.25,23.05-.9,24.63-6.02,39.72-15.4,45.32,0-3.94,.14-8.42,.39-13.47,.28-5.04,.39-10.92,.39-17.62,0-6.67-.62-12.4-1.84-17.11-1.61-6.07-8.32-10.06-20.16-11.89,10.95-5.82,17.49-12.34,19.61-19.56,1.42-4.25,2.14-11.61,2.14-22.14v-13.11c-26.54-43.85-53.03-87.38-79.46-130.59,7.41-1.07,13.75,.29,19.04,4.03,3.34,2.43,8.82,9.44,16.4,21.06,18.09,28.93,36.21,58,54.35,87.23,3.19,4.86,4.78,11.56,4.78,20.11v44.7Z"/><path class="cls-2" d="M989.16,1005.14c9.18-6.22,19.7-9.17,31.57-8.8,6.85,.21,12.59,1.92,17.29,5.12,1.96-1.35,2.97-4.08,2.97-8.18,0-8.01-2.41-14.66-7.17-19.92-4.76-5.23-11.1-8-19.02-8.23-29.6-.87-59.2-1.36-88.8-1.47-9-.03-15.94,2.15-20.8,6.54-4.86,4.39-7.29,9.43-7.29,15.15,0,5.7,.91,9.88,2.71,12.57,5.21-3.05,12.64-4.6,22.27-4.57,9.63,.03,18.14,2.34,25.5,6.86-25.55,51.02-51.11,102.33-76.66,153.92-26.91-50.87-53.81-101.42-80.71-151.66,6.47-3.98,14.93-6.14,25.37-6.43,4.86-.13,9.72,1.24,14.58,4.16,1.96-1.27,2.97-4.43,2.97-9.43-.37-8.19-4.6-14.52-12.69-18.96-3.79-2.22-8.2-3.83-13.22-4.83-5.05-1-11.7-1.37-19.97-1.07-39.4,1.43-78.78,3.53-118.13,6.3-10.94,.77-19.29,4.08-25.05,9.9-2.68,2.69-4.66,5.76-5.92,9.15-1.26,3.41-1.89,7.05-1.89,10.99,0,3.91,1,6.52,2.96,7.78,4.69-3.41,11.05-5.41,19.12-6,8.09-.6,17.33,3.38,27.76,11.99,36.12,59.7,72.27,119.97,108.44,180.81v9.64c0,8.75-3.06,16.69-9.18,23.88-3.78,4.24-11.7,9.35-23.73,15.41,12.94,5.67,22.28,11.93,28.05,18.67,3.25,3.82,4.86,9.84,4.86,18.04v52.72c-3.43,7.25-8.5,12.69-15.25,16.33-6.75,3.64-13.41,5.64-19.97,5.92-6.56,.29-11.82-.99-15.76-3.83-1.99,2.79-2.96,5.94-2.97,9.5,0,6.97,4.3,12.55,12.94,16.78,4.13,2.13,8.85,3.75,14.15,4.87,5.32,1.12,11.89,1.53,19.71,1.25l117.96-2.25c10.71-.02,20.54-2.5,29.57-7.44,3.95-2.11,7.1-4.67,9.44-7.69,2.34-3.01,3.51-6.24,3.51-9.72,0-3.5-.98-6.57-2.97-9.27-3.97,3-9.28,4.48-15.94,4.45-6.66-.03-13.35-1.76-20.1-5.13-6.75-3.37-11.76-8.61-14.98-15.73,0-17.57,0-35.15,0-52.72,0-8.2,2.69-15.63,8.09-22.25,3.6-4.29,11.9-9.58,24.84-15.76-12.06-5.59-21.15-11.73-27.28-18.47-3.76-4.27-5.66-10.77-5.66-19.52,0-4.9,0-9.81,0-14.71,31.5-61.98,63-123.52,94.49-184.64Zm-152,238.15c0,7.85-.09,15.52-.26,23.01-.91,24.46-6.12,38.58-15.66,42.4,0-3.94,.14-8.39,.4-13.4,.28-4.99,.4-10.85,.4-17.55,0-6.67-.63-12.52-1.87-17.46-1.64-6.37-8.46-11.64-20.51-15.72,11.14-3.75,17.8-9.02,19.95-15.84,1.45-3.98,2.17-11.19,2.17-21.74v-13.11c-27-48.88-53.98-97.44-80.96-145.69,7.56,.34,14.03,2.91,19.43,7.66,3.41,3.07,8.99,11.12,16.72,24.18,18.44,32.37,36.88,64.88,55.32,97.54,3.25,5.46,4.86,12.46,4.86,21.02v44.7Z"/><path class="cls-2" d="M599.34,1007.6c6.1-.55,11.14,.53,15.08,3.22,1.98-2.86,2.96-6.07,2.96-9.64,0-6.94-3.87-12.42-11.58-16.38-3.75-1.98-8.16-3.41-13.19-4.26-5.01-.88-11.46-.94-19.36-.16-39.05,3.85-78.05,8.38-116.99,13.56-10.63,1.42-20.05,5.22-28.29,11.37-3.57,2.66-6.38,5.66-8.42,8.96-2.06,3.34-3.08,6.74-3.08,10.22,0,3.48,.97,6.41,2.95,8.82,3.92-3.6,8.93-5.84,15.01-6.69,15.89-2.22,26.9,3.23,32.99,16.17,0,37.63,0,75.27,0,112.9,0,8.76-3.07,17-9.13,24.76-3.58,4.76-11.45,10.72-23.61,17.92,13.04,4.6,22.26,9.91,27.62,15.78,3.39,3.5,5.11,9.34,5.11,17.54,0,43.62,0,87.23,0,130.85-6.08,14.34-17.09,22.57-32.99,24.78-6.08,.85-11.09,.04-15.01-2.43-1.97,2.97-2.94,6.22-2.95,9.78,0,6.97,3.83,12.21,11.5,15.75,3.76,1.78,8.14,3,13.13,3.65,5.01,.65,11.4,.46,19.17-.57,39.03-5.15,78.13-9.64,117.28-13.45,10.57-1.03,19.99-4.4,28.23-10.14,3.59-2.45,6.43-5.29,8.48-8.51,2.07-3.21,3.1-6.54,3.1-10.02,0-3.5-.98-6.47-2.96-8.99-3.94,3.37-8.97,5.35-15.08,5.9-15.96,1.46-27-4.22-33.1-17.16v-130.85c0-8.2,2.61-15.79,7.8-22.71,3.59-4.45,11.92-10.56,25.04-18.17-12.21-4.4-21.27-9.77-27.18-16.13-3.77-3.91-5.66-10.23-5.66-18.98v-112.9c6.1-14.34,17.14-22.34,33.1-23.79Zm-91.4,288.62c-.91,20.1-5.84,32.35-14.78,36.84,0-11.6,0-23.19,0-34.79,0-54.04-1.07-85.23-3.21-93.53-1.44-5.17-7.53-8.97-18.26-11.34,9.66-4.28,15.75-10.1,18.26-17.54,2.14-8.83,3.21-44.29,3.21-106.37,3.04,1.07,6.32,3.56,9.81,7.52,3.49,3.96,5.51,16.41,6.04,37.41,.19,7.11,.3,16.51,.4,28.19,.09,11.67,.14,35.17,.14,70.47,0,35.32-.53,63.04-1.6,83.14Z"/><path class="cls-2" d="M1385.54,1154.39c-5.55-52.1-24.13-94.68-55.81-127.09-30.43-31.13-68.86-49.16-115.36-53.23-45.21-3.94-83.95,8.38-116.12,36.25-15.29,13.26-27.88,29.65-37.76,49.03-9.9,19.38-16.26,40.42-19.04,63.06-2.78,22.64-12.01,37.32-27.66,44.16,8.11,4.17,14.34,10.04,18.76,17.6,4.42,7.54,7.69,21,9.86,40.36,2.15,19.33,7.85,39.97,17.12,61.95,9.27,21.98,21.37,40.98,36.29,57.11,30.91,33.4,70.54,51.73,118.83,55.95,50.43,4.42,90.37-6.89,119.91-35.04,14.13-13.6,25.39-30.6,33.8-51.07,8.41-20.48,14.04-42.88,16.9-67.28,2.85-24.41,12.07-39.4,27.6-44.8-15.91-9.61-25.01-25.21-27.33-46.96Zm-282.97,158.26c-4.32-5.59-8.2-11.77-11.6-18.54-10.06-19.07-18.35-56.37-24.82-111.98-.54-4.65-5.84-9.44-15.91-14.31,10.07-3.7,15.37-7.81,15.91-12.44,3.95-32.11,9.27-57.47,15.93-76.05,3.6-10.18,9.62-20.3,18.07-30.39,2.34,.85,3.5,2.44,3.5,4.75,0,2.31-.63,5.66-1.89,10.06-10.06,28.71-15.11,63.96-15.11,105.69,0,57.26,4.76,96.91,14.29,119.02,3.78,8.59,5.67,14.86,5.67,18.77,0,2.69-1.35,4.46-4.04,5.41Zm169.38-171.99c0,19.81-9.66,33.13-29.04,40.18,19.38,11.33,29.04,27.81,29.04,49.2v79.45c0,19.46-5.38,33.78-16.13,43.04-5.19,4.49-11.34,7.64-18.42,9.47-7.08,1.84-14.84,2.35-23.28,1.62-8.44-.74-16.25-2.62-23.43-5.69-24.25-10.13-36.38-29.56-36.38-58.67v-79.45c0-21.39,9.89-36.17,29.64-44.11-19.75-10.08-29.64-25.09-29.64-45.28v-63.93c0-10.54,1.54-19.51,4.6-26.99,9.17-22.16,27.48-32.28,54.93-29.89,16.15,1.41,29.71,7.77,40.65,19.03,11.64,12.23,17.46,28.28,17.46,48.08v63.93Zm49.18,129.1c-1.6,36.74-9.39,56.41-23.37,59.13,2.16-6.2,3.96-16.23,5.37-30.18,.72-6.52,1.26-13.64,1.63-21.36,.35-7.72,.53-17.93,.53-30.7,0-12.76-.91-27.97-2.7-45.66-.53-4.51-6.17-9.81-16.91-15.79,3.75-.85,7.24-2.15,10.47-3.92,1.79-1.05,3.58-2.45,5.37-4.22,1.79-1.77,2.7-12.99,2.7-33.67,0-36.57-2.51-62.64-7.54-78.19,4.12,1.36,7.16,3.21,9.14,5.59,6.81,8.1,11.28,21.74,13.42,40.89,1.09,8.33,1.88,18.91,2.42,31.72,.56,12.83,.81,31.95,.81,57.36,0,25.43-.44,48.43-1.35,69Z"/><path class="cls-2" d="M1509.02,1038.73c-9.2-17.24-22.27-27.31-39.23-30.07-16.8-2.73-29.83,3.02-39.05,17.08-4.33,6.65-11.39,11.75-21.24,15.39,8.8,4.4,15.8,11.17,21.01,20.31,7.29,13.01,17.13,21.07,29.47,24.22-.75,6.14-2.38,11.76-4.91,16.86-7.15,15.53-18.01,25.51-32.61,30.03,0,2.98,1.12,5.52,3.37,7.65,2.22,2.11,4.84,3.41,7.81,3.86,14.44,2.2,27.6-1.45,39.51-10.96,6.24-5.08,12.14-11.91,17.72-20.49,5.58-8.58,10.65-18.94,15.26-31.09,4.61-12.15,12.63-19.08,24.05-20.74-9.65-6.65-16.71-14-21.16-22.07Zm-67.34,16.38c-3.42-4.4-7.07-8.01-10.94-10.83,5.35-1.86,9.3-4.23,11.83-7.12,1.49-1.55,3.54-3.47,6.15-5.73,2.59-2.28,6.51-3.91,11.71-4.85-1.64,2.27-2.82,5.65-3.57,10.14-.29,1.91-.52,3.73-.66,5.48-.15,1.78-.23,5.36-.23,10.79,0,5.45,1.57,11.38,4.69,17.83-6.55-2.53-12.87-7.76-18.97-15.7Z"/><path class="cls-2" d="M1812.15,1325.88c-11.04-22.39-32.97-52.46-65.87-89.55-3.7-3.93-5.56-7.79-5.55-11.54,0-2.32,.55-5.84,1.6-10.56,1.14-4.71,2.29-9.43,3.43-14.14-5.99,2.43-12.14,3.96-18.5,4.57-3,.16-5.72,.22-8.19,.16-2.47-.06-4.92-.36-7.39-.95-2.47-.59-7.23-3.94-14.29-10.05-4.23-3.84-8.46-7.67-12.7-11.5-16.07-14.54-27.83-27.65-35.27-39.44-4.25-6.81-6.36-14.58-6.36-23.31,0-11.58,4.25-20.58,12.72-26.93,9.02-6.75,20.61-8.55,34.73-5.29,22.23,5.13,40.21,16.09,53.92,32.69,6.51,8.03,11.59,16.83,15.17,26.4,3.61,9.55,5.41,18.44,5.41,26.64,0,8.22-1.48,15.51-4.47,21.89,4.91,3.74,10.98,6.51,18.19,8.37,4.56,1.18,9.39-.32,14.48-4.52,2.28-1.88,4.08-4.4,5.4-7.54,1.32-3.12,1.98-6.61,1.98-10.43,2.1-27.09,4.21-54.18,6.31-81.27,0-7.57-2.37-15.04-7.11-22.37-2.09-3.22-4.47-5.95-7.11-8.15-2.62-2.22-5.04-3.61-7.25-4.19-2.19-.57-3.9-.73-5.13-.52,.71,1.97,1.05,4.28,1.05,6.97,0,2.67-1.14,5.43-3.42,8.22-2.46,2.56-5.32,3.66-8.56,3.29-3.27-.39-6.89-1.1-10.96-2.13-9.66-2.43-18.3-6.07-25.87-10.95-17.77-11.28-37.35-19.39-58.73-24.21-35.17-7.92-64.21-4.08-87.1,11-10.99,7.11-19.66,16.72-25.95,28.8-6.32,12.09-9.46,24.62-9.46,37.54,0,12.94,.97,23.88,2.93,32.79,5.67,25.7,24.06,55.78,55.09,90.85,3.28,3.61,6.55,7.23,9.82,10.86,3.38,3.58,5.06,6.25,5.06,8.03,0,7.85-1.52,15.98-4.53,24.46,11.34-5.3,21.7-6.93,31.07-4.89,9.19,2.01,21.49,10.19,36.85,24.58,19.94,18.5,34.56,35.23,43.89,49.99,5.99,9.47,8.99,20.66,8.99,33.49,0,18.21-6.33,31-19.03,38.46-11.81,6.99-26.17,8.49-43.14,4.64-25.25-5.72-46.05-18.53-62.34-38.66-7.61-9.27-13.53-19.64-17.67-31.18-4.17-11.54-6.26-24.54-6.26-38.99,0-14.45,3.2-24.43,9.58-29.92-3.02-6.31-8.1-10.18-15.29-11.61-7.19-1.43-14.52,2.06-21.96,10.43-3.55,3.79-6.36,8.47-8.39,14.06-2.05,5.59-3.07,11.82-3.07,18.67,.89,28.31,1.78,56.62,2.68,84.93,0,1.34,0,2.67,0,4.01,0,10.01-2.05,17.1-6.14,21.34,2.84,6.58,8.35,10.64,16.51,12.21,12.8,2.46,26.27-2.01,40.45-13.39,22.32,16.89,48.62,28.62,78.81,35.53,42.89,9.82,77.63,6.48,104.32-10.81,12.1-7.7,21.3-17.71,27.61-30.11,6.33-12.37,9.46-28.37,9.47-47.99,0-19.62-4.82-39.22-14.45-58.77Zm-47.4,87.96c.87-4.25,1.3-9.67,1.3-16.28-.34-18.45-4.91-34.96-13.7-49.46-12.16-19.8-35.21-44.63-69.28-73.82-6.88-5.85-14.22-9.66-21.98-11.38-3.9-.86-8.93-.09-15.13,2.32,.18-.68,.53-1.67,1.06-2.99,.53-1.3,1.03-2.72,1.47-4.22,.44-1.5,.96-3.54,1.58-6.07,.62-2.56-1.81-6.91-7.3-13.1-5.31-5.96-10.62-11.91-15.93-17.85-32.4-36.05-48.66-65.96-48.66-90.43,0-11.95,3.39-18.68,10.11-20.22-.69,17.54,6.04,37.75,20.21,60.81,16.13,26.15,39.68,52.75,70.6,80.26,12.54,11.5,25.06,23.07,37.58,34.71,10.76,10.05,19.79,19.23,27.08,27.45,7.32,8.22,13.25,15.65,17.82,22.24,4.57,6.6,8.56,13.8,12.01,21.66,3.42,7.83,5.13,18.19,5.13,31.02,0,13.21-4.65,21.63-13.97,25.33Z"/></g><g><path class="cls-2" d="M640.12,1781.6c-21.1-11.93-43-16.73-73.16-13.03-23.28,2.88-37.83,9.21-37.83,19.54,0,12.43,19.6,8.31,59.7,7.07,52.68-1.17,83.77,5.63,83.76,38.44,0,37-39.21,54.64-96.52,61.5-53.05,6.45-83.52-1.32-105.91-18.54,8.07-8.04,16.14-16.05,24.22-24.03,22.41,12.5,47.07,18.33,82.1,14.1,23.69-2.84,38.91-8.65,38.9-20.84,0-15.18-23.33-10.04-61.78-8.59-49.78,1.96-80.21-4.73-80.22-35.03,0-34.45,38.91-54.88,93.57-61.64,50.21-6.12,77.22,3.49,97.52,18.68-8.12,7.42-16.24,14.87-24.35,22.36Z"/><path class="cls-2" d="M700.4,1877.45v-145.12c16.93-1.29,33.87-2.43,50.81-3.41,0,18.27,0,36.53,0,54.8,31.31-1.82,62.65-3.13,94-3.92v-54.8c16.89-.43,33.79-.7,50.69-.83v145.12c-16.9,.13-33.8,.4-50.69,.83v-57.64c-31.35,.79-62.68,2.1-94,3.92,0,19.21,0,38.43,0,57.64-16.94,.99-33.88,2.12-50.81,3.41Z"/><path class="cls-2" d="M923.57,1796.55c0-41.84,37.07-78.04,112.77-75.06,75.69,3.33,112.62,42.61,112.63,84.45,0,42.59-36.94,73.74-112.63,70.41-75.7-2.98-112.77-37.21-112.77-79.8Zm170.33,5.45c0-28.81-25.62-48.95-57.56-50.27-31.95-1.34-57.6,16.66-57.6,45.47,0,29.04,25.45,47.56,57.6,48.91,31.94,1.32,57.56-15.07,57.56-44.11Z"/><path class="cls-2" d="M1176.56,1880.98v-145.12c42.96,3.91,85.86,8.8,128.65,14.66,27.91,3.78,59.38,21.94,59.37,55.86,0,33.68-30.86,43.21-58.36,39.48-26.28-3.61-52.6-6.85-78.95-9.72v49.93c-16.89-1.84-33.79-3.53-50.71-5.07Zm50.71-109.6v34.3c23.65,2.58,47.27,5.45,70.86,8.62,9.3,1.25,18.6-1.91,18.6-14.69,0-12.99-9.09-18.34-18.6-19.61-23.59-3.17-47.22-6.05-70.86-8.62Z"/></g><g><path class="cls-1" d="M1307.26,531.96l-139.58-27.48,32.02-88.32v-72.29c32.46-4.12,57.4-27.17,57.4-54.92s-24.94-50.82-57.4-54.92V120.83l-.76-1.87c-.29-.72-7.28-17.78-22.69-34.83-20.8-23.01-47.11-35.17-76.09-35.17h-5.96c-59.17,.04-83.63,.05-126.95-33.27l-3.88-2.98-4.76,1.09c-1.92,.44-47.05,11.16-64.01,49.16-11.03,24.7-7.4,54.37,10.76,88.17v82.65c-33.65,3.24-59.85,26.74-59.85,55.18s26.2,51.94,59.85,55.17v71.9l29.24,88.52-130.01,25.6-17.18-47.79,61.56-219.29,.1-.62c19.7-128.09-14.85-230.28-16.33-234.57l-9.61-27.86-104.62,290.83L613.87,0l-9.61,27.86c-1.48,4.29-36.03,106.48-16.32,234.57l.09,.62,61.57,219.29-72.21,200.69c-63.58,3.85-114.15,56.78-114.15,121.32s54.51,121.52,121.52,121.52,121.52-54.53,121.52-121.52c0-38.9-18.21-74.73-49.15-97.62,3.36-8.49,8.29-23.57,15.8-51.09,5.11-18.75,20.8-41.55,45.56-66.34,7.84,7.85,14.78,15.51,20.76,22.9v90.78c-23.94,31.1-16.78,72.03-8.49,97.52-.04,1.31-.06,2.61-.06,3.85,0,16.22,3.14,31.95,9.34,46.8,18.96,45.4,62.98,74.72,112.18,74.72,4.38,0,8.77-.23,13.03-.71h.92l.63-.17c16.93-2.03,32.89-7.47,47.5-16.17h1.44s1.44-1.49,1.44-1.49c9.99-3.77,19.38-7.41,28.48-10.93,44.88-17.4,77.32-29.96,105.33-29.15h.6c1.84-.06,3.79-.05,5.78,.02,26.72,.92,58.81,13.35,99.43,29.08,18.97,7.35,40.48,15.67,64.51,24.06,24.89,8.66,49.27,13.06,72.46,13.06h.24c38.23-.06,69.34-31.24,69.34-69.51v-263.79c0-33.15-23.6-61.82-56.11-68.22Zm-107.55-276.95c20.95,3.51,36.64,17.39,36.64,33.94s-15.69,30.42-36.64,33.94v-67.88Zm-294.34,68.25c-22.17-2.81-39.08-17.12-39.08-34.31s16.92-31.5,39.08-34.32v68.63Zm60.1,107.97c51.38-2.92,76.91-22.84,87.07-33.57,10.15,10.74,35.69,30.66,87.07,33.57,17.16,.96,24.54,9.22,27.42,14.16l-33.24,91.67c-3,8.28-10.96,13.87-19.79,13.87h-126.97c-9.11,0-17.14-5.8-19.99-14.46l-29.69-89.85c2.22-4.41,9.27-14.34,28.13-15.39Zm213.48-68.09c-14.07-17.18-32.4-27.16-51.91-27.16h-42.69v-9.77h-48.24l26.33-84.22-19.82-6.2-31.32,100.2h-33.27c-19.52,0-37.84,9.98-51.91,27.16V158.87h252.82v204.26ZM821.44,65.99c8.76,39.18,19.63,111.04,7.18,192.66l-53.34,190.04-45.76-127.2,91.92-255.49Zm-168.53,584.18c-10.61,38.89-15.55,50.47-16.92,53.26l-9.55,8.09,11.98,7.54c29.48,18.6,47.1,50.49,47.1,85.3,0,55.56-45.2,100.76-100.76,100.76s-100.76-45.2-100.76-100.76,45.2-100.76,100.76-100.76h7.29l67.21-186.78,8.09,28.8,2.94,2.13c.17,.13,15.14,10.97,33.15,27.26-27.43,27.52-44.42,52.76-50.53,75.17Zm72.74-82.89c-17.62-16.79-33.78-29.34-40.27-34.2l-77.03-274.44c-12.45-81.63-1.56-153.47,7.18-192.66l219.16,609.16c-13.12-1.31-27.48-.79-42.7,2.64-2.39-7.84-5.04-17.07-7.91-27.61-6.68-24.48-26.34-52.38-58.43-82.89Zm182.69,320.76h-1.16s-.17,.01-.17,.01l-1.45,1.49c-11.43,4.29-21.37,7.87-31.1,11.26-3.96,1.38-7.91,2.63-11.77,3.76-3.42,.35-6.92,.55-10.45,.55-40.12,0-76.09-23.54-92.21-60.13v-18.78l34.55-15.45c3.2,28.98,27.83,51.61,57.66,51.61s52.88-21.23,57.28-48.87c13.45,2.97,27.53,6.41,41.6,10.27-5.08,26.25-20.31,49.21-42.77,64.27Zm-93.36-83.69c0-.93,.04-1.86,.11-2.77l8.16-3.65c8.31,1.12,33.9,4.8,65.9,11.26-2.38,18.25-18.03,32.41-36.92,32.41-20.54,0-37.25-16.71-37.25-37.25Zm139,66.59c8.18-12.48,14.01-26.47,17.14-41.34,18.32,5.69,36.05,12.15,51.69,19.44-20.35,3.87-42.5,11.81-68.82,21.9Zm107.2-24.28c-71.89-48.5-231.37-68.86-238.2-69.7l-2.88-.37-65.24,29.15c-7.54-18.49-21.21-61.76,1.07-90.4,35.11-22.24,71.96-26.14,109.54-11.63,28.95,11.19,47.62,29.62,47.79,29.79l2.72,2.75,165.78,12.52c-17.64,6.88-31.52,22.35-35.46,42.26-2.97,15.02,.09,30.29,8.6,43.02,3.4,5.06,7.49,9.45,12.13,13.12-1.97-.22-3.92-.38-5.86-.5Zm281.42,17.31c0,26.85-21.8,48.71-48.6,48.74h-.22c-20.87,0-42.95-4.02-65.64-11.91-23.69-8.26-45.02-16.51-63.84-23.8-27-10.48-50.39-19.52-71.63-25l2.76-14c-9.58-1.89-17.83-7.4-23.27-15.51-3.46-5.17-5.48-10.97-6.03-16.95l85.93,16.98-5.34,26.97,20.37,4.03,5.33-26.97,24.13,4.78c1.67,14.18,12.3,26.34,27.05,29.26,2.2,.43,4.4,.65,6.57,.65,15.83,0,30.01-11.19,33.2-27.27,3.62-18.31-8.33-36.15-26.64-39.79-14.75-2.89-29.2,4.29-36.15,16.78l-24.13-4.76,5.32-26.97-20.36-4.03-5.34,26.96-85.93-16.98c2.8-5.35,6.89-9.94,12.04-13.39,8.11-5.45,17.84-7.38,27.42-5.48l3-15.21,229.98,17.36v95.52Zm-125.26-39.12c.68-3.42,2.65-6.39,5.56-8.33,2.19-1.45,4.69-2.22,7.26-2.22,.85,0,1.71,.09,2.56,.26,3.43,.67,6.39,2.65,8.33,5.54,1.94,2.92,2.65,6.39,1.97,9.82-.67,3.43-2.65,6.39-5.56,8.34-2.89,1.94-6.39,2.63-9.82,1.97-3.42-.68-6.38-2.66-8.33-5.56-1.94-2.92-2.64-6.39-1.97-9.82Zm125.26-77.21l-124.83-9.42c5.53-16.82,14.91-28.46,28.48-35.42,32.48-16.62,79.68-1.48,96.35,4.85v39.99Z"/><circle class="cls-1" cx="1119.7" cy="266.96" r="23.82"/><circle class="cls-1" cx="985.35" cy="266.96" r="23.82"/><path class="cls-1" d="M584.75,746.33c-31.99,0-58.01,26.03-58.01,58.01s26.03,58.01,58.01,58.01,58.01-26.03,58.01-58.01-26.03-58.01-58.01-58.01Zm0,95.26c-20.54,0-37.25-16.71-37.25-37.25s16.71-37.25,37.25-37.25,37.25,16.71,37.25,37.25-16.71,37.25-37.25,37.25Z"/><circle class="cls-1" cx="718.49" cy="479.47" r="23.82"/></g></g></g></svg>